<?xml version="1.0" standalone="no"?>
<!DOCTYPE svg PUBLIC "-//W3C//DTD SVG 20010904//EN"
 "http://www.w3.org/TR/2001/REC-SVG-20010904/DTD/svg10.dtd">
<svg version="1.0" xmlns="http://www.w3.org/2000/svg"
 width="1661.000000pt" height="1661.000000pt" viewBox="0 0 1661.000000 1661.000000"
 preserveAspectRatio="xMidYMid meet">
<metadata>
Created by potrace 1.14, written by Peter Selinger 2001-2017
</metadata>
<g transform="translate(0.000000,1661.000000) scale(0.100000,-0.100000)"
fill="#000000" stroke="none">
<path d="M8175 16582 c-131 -9 -289 -68 -388 -144 -251 -196 -444 -612 -502
-1083 -3 -27 -8 -61 -10 -75 -2 -14 -6 -47 -10 -75 -3 -27 -8 -61 -10 -75 -2
-14 -6 -46 -9 -72 -3 -26 -10 -76 -15 -110 -9 -59 -13 -85 -25 -183 -3 -22
-14 -105 -25 -185 -11 -80 -23 -167 -26 -195 -3 -27 -8 -59 -10 -70 -2 -11 -7
-42 -11 -70 -3 -27 -8 -61 -10 -75 -2 -14 -6 -52 -10 -85 -3 -33 -8 -62 -9
-65 -2 -3 -6 -37 -10 -75 -4 -39 -9 -73 -11 -76 -1 -3 -6 -32 -9 -65 -3 -32
-8 -70 -10 -84 -8 -41 -22 -140 -30 -210 -3 -25 -10 -74 -15 -110 -5 -36 -12
-81 -14 -100 -3 -19 -10 -73 -16 -120 -6 -47 -13 -96 -15 -110 -2 -14 -6 -45
-10 -70 -3 -25 -8 -63 -12 -85 -3 -22 -7 -51 -8 -65 -1 -14 -7 -59 -13 -100
-7 -41 -14 -95 -17 -120 -3 -25 -10 -72 -15 -105 -5 -33 -11 -82 -15 -110 -3
-27 -10 -77 -15 -110 -5 -33 -12 -81 -15 -107 -5 -48 -22 -171 -30 -218 -2
-14 -7 -50 -10 -80 -3 -30 -8 -62 -10 -70 -2 -8 -6 -40 -10 -71 -3 -31 -7 -65
-9 -75 -2 -11 -7 -44 -10 -75 -4 -31 -8 -66 -10 -76 -3 -11 -7 -44 -11 -73 -4
-29 -8 -60 -10 -69 -1 -9 -6 -41 -9 -71 -9 -76 -11 -83 -18 -96 -4 -6 -42 -24
-85 -39 -501 -180 -1277 -493 -1638 -660 -44 -21 -90 -41 -102 -46 l-23 -9 0
208 c-1 404 -13 925 -24 1047 -2 17 -6 66 -10 110 -4 44 -14 127 -22 185 -80
562 -251 911 -504 1028 -64 30 -85 34 -150 34 -112 0 -193 -28 -288 -99 -230
-173 -496 -647 -721 -1283 -29 -80 -55 -152 -58 -160 -3 -8 -7 -19 -8 -25 -2
-5 -28 -86 -58 -180 -58 -175 -118 -376 -163 -538 -26 -94 -102 -380 -109
-407 -2 -8 -17 -69 -33 -135 -38 -154 -84 -348 -117 -500 -35 -158 -85 -393
-91 -425 -14 -81 -16 -82 -142 -160 -66 -41 -132 -88 -147 -103 -67 -74 -86
-168 -47 -244 25 -48 67 -81 133 -103 l47 -15 -23 -80 c-23 -81 -123 -437
-130 -465 -10 -38 -114 -389 -181 -615 -42 -137 -87 -288 -100 -335 -14 -47
-42 -141 -64 -210 -21 -69 -53 -172 -70 -230 -18 -58 -39 -125 -47 -150 -8
-25 -16 -52 -18 -60 -2 -8 -17 -58 -34 -110 -16 -52 -48 -153 -70 -225 -68
-220 -199 -640 -262 -840 -167 -528 -191 -603 -204 -640 -24 -71 -123 -388
-139 -445 -54 -194 -75 -404 -49 -493 39 -132 168 -98 318 84 157 189 390 734
595 1389 28 91 58 183 65 205 8 22 48 157 90 300 42 143 85 289 95 325 11 36
26 90 34 120 31 115 99 350 138 475 88 285 192 672 243 905 8 36 28 122 44
192 17 69 32 137 35 150 2 12 21 95 41 183 41 180 41 179 56 255 5 30 14 69
19 85 5 17 11 41 14 55 10 59 77 323 85 339 9 16 986 511 1010 511 8 0 10 -14
7 -42 -3 -24 -8 -81 -11 -128 -4 -47 -8 -101 -10 -120 -2 -19 -6 -82 -10 -140
-3 -58 -8 -125 -10 -150 -2 -25 -6 -94 -10 -155 -3 -60 -8 -128 -10 -150 -3
-22 -7 -94 -10 -160 -3 -66 -8 -147 -10 -180 -2 -33 -6 -125 -10 -205 -3 -80
-8 -174 -10 -211 -27 -448 -27 -1609 0 -1979 2 -30 6 -91 9 -135 4 -44 8 -96
11 -115 2 -19 9 -78 14 -130 6 -52 13 -106 15 -120 3 -14 7 -43 10 -65 20
-148 66 -332 110 -450 47 -122 166 -320 283 -469 74 -94 221 -239 307 -303 97
-72 257 -154 346 -179 77 -21 154 -32 232 -33 81 -2 124 3 213 23 93 20 238
92 337 167 215 161 448 476 557 752 52 129 135 383 156 476 3 9 12 43 21 76 9
33 17 67 19 75 2 8 11 44 20 80 52 205 169 727 190 850 3 19 8 42 10 50 2 8 7
31 10 50 3 19 10 55 15 80 5 25 12 56 14 70 3 14 10 50 16 80 6 30 13 66 15
80 3 14 20 111 39 215 19 105 37 204 39 220 5 30 12 74 22 130 5 24 84 489
100 585 7 43 36 223 41 260 3 19 14 87 24 150 10 63 21 131 24 150 2 19 14 98
26 175 11 77 23 154 25 170 3 17 16 107 31 200 14 94 27 188 30 210 3 22 14
96 24 165 11 69 22 145 25 170 3 25 7 59 10 75 3 17 7 48 10 70 3 22 12 83 20
135 8 52 16 118 19 145 4 28 8 59 10 70 2 11 7 43 10 70 4 28 9 61 11 75 2 14
6 48 9 75 4 28 8 61 11 75 4 25 15 104 20 150 1 14 6 45 9 70 4 25 9 63 12 85
3 22 7 51 9 65 2 14 7 50 10 80 12 116 -9 100 223 175 114 36 227 73 252 81
49 17 226 70 275 84 17 4 93 26 170 49 77 23 144 41 150 41 6 0 10 -34 11 -83
0 -45 4 -230 8 -412 8 -389 13 -645 21 -1155 15 -1052 20 -1324 30 -1865 7
-358 22 -924 31 -1175 14 -411 20 -548 29 -745 15 -295 23 -408 36 -540 12
-119 17 -160 44 -345 8 -58 17 -116 20 -130 2 -14 6 -38 9 -55 3 -16 8 -41 11
-55 2 -14 7 -36 9 -50 2 -14 12 -61 21 -105 9 -44 19 -91 21 -105 3 -14 10
-43 16 -65 5 -22 12 -51 15 -65 24 -136 161 -616 254 -890 38 -113 71 -209 73
-215 2 -5 6 -17 9 -25 4 -8 16 -42 27 -75 12 -33 25 -69 30 -80 4 -11 19 -47
31 -80 13 -33 27 -64 31 -70 4 -5 8 -15 8 -22 0 -22 187 -438 284 -632 436
-873 926 -1454 1396 -1654 319 -136 666 -162 936 -72 289 97 536 350 690 707
155 359 170 608 50 834 -66 126 -142 190 -217 185 -28 -2 -39 -52 -44 -192 -5
-154 -14 -320 -21 -352 -2 -12 -6 -44 -10 -71 -9 -82 -61 -272 -96 -354 -95
-219 -252 -355 -448 -389 -123 -21 -289 2 -425 60 -491 208 -925 934 -1254
2097 -32 114 -91 334 -96 363 -2 9 -20 86 -39 170 -19 83 -37 163 -40 177 -2
14 -21 106 -41 205 -19 99 -37 191 -40 205 -9 52 -46 276 -51 305 -2 17 -9 55
-14 85 -5 30 -12 75 -15 100 -3 25 -10 70 -15 100 -5 30 -12 75 -15 100 -2 25
-7 61 -10 80 -6 48 -12 95 -20 160 -3 30 -8 66 -10 80 -2 14 -7 56 -10 95 -4
38 -8 76 -10 85 -1 8 -6 49 -9 90 -4 41 -9 91 -11 110 -2 19 -7 64 -10 100 -3
36 -7 85 -10 110 -5 49 -11 129 -20 255 -3 44 -8 105 -10 135 -3 30 -7 102
-10 160 -3 58 -8 137 -10 175 -14 250 -20 527 -19 1005 1 300 2 786 3 1080 1
680 -6 1037 -34 1755 -2 66 -7 185 -10 265 -3 80 -7 179 -10 220 -2 41 -7 136
-10 210 -4 74 -8 167 -10 205 -2 39 -7 124 -10 190 l-7 121 159 32 c87 18 169
34 183 37 14 3 36 7 50 10 14 2 39 7 55 10 17 3 41 7 55 10 66 12 390 65 430
70 25 3 52 8 60 10 8 2 42 6 75 10 33 3 67 8 75 10 8 2 42 6 75 10 33 3 94 10
135 15 41 5 102 12 135 14 56 5 156 14 235 21 224 21 923 28 1144 12 164 -12
448 -44 541 -62 17 -3 53 -10 80 -15 28 -5 111 -21 185 -35 132 -25 235 -42
315 -51 22 -2 59 -7 83 -9 59 -8 178 -7 227 0 22 3 51 14 65 24 21 15 25 26
24 64 -4 127 -150 246 -405 331 -172 58 -718 159 -979 182 -41 3 -82 8 -91 9
-16 3 -162 16 -239 21 -473 30 -1098 21 -1505 -21 -22 -2 -71 -7 -110 -10 -38
-3 -86 -8 -105 -10 -19 -2 -60 -7 -90 -10 -30 -3 -66 -8 -80 -10 -14 -2 -50
-7 -80 -10 -30 -4 -66 -8 -80 -10 -14 -2 -45 -7 -70 -10 -81 -11 -243 -36
-360 -56 -143 -25 -225 -39 -226 -39 -1 0 -2 10 -1 23 1 24 -8 167 -28 427 -2
36 -7 106 -10 155 -4 50 -8 108 -10 130 -2 22 -6 83 -9 135 -4 52 -9 115 -11
140 -3 25 -7 83 -10 130 -3 47 -7 105 -10 130 -3 25 -7 79 -10 120 -3 41 -8
93 -10 115 -2 22 -6 78 -10 125 -3 47 -8 103 -10 125 -2 22 -7 74 -10 115 -9
113 -14 170 -20 220 -2 25 -7 79 -10 120 -4 41 -8 89 -9 105 -2 17 -6 66 -10
110 -4 44 -9 98 -11 120 -2 22 -7 69 -10 105 -3 36 -8 85 -11 110 -3 25 -7 63
-9 85 -4 61 -16 177 -20 202 -2 12 -6 57 -10 100 -4 43 -8 85 -10 93 -2 8 -7
38 -10 65 -4 28 -8 57 -10 65 -2 8 -7 38 -11 65 -3 28 -8 53 -10 56 -2 3 -6
21 -9 40 -3 19 -10 50 -15 69 -5 19 -11 46 -14 60 -12 63 -59 218 -92 307
-151 410 -370 645 -624 669 -30 3 -59 6 -65 7 -5 1 -28 1 -50 -1z m-214 -1520
c38 -78 74 -250 114 -542 3 -25 8 -56 10 -70 9 -61 15 -108 20 -150 5 -44 13
-99 20 -150 2 -14 7 -47 10 -75 13 -116 16 -142 21 -180 10 -75 12 -90 18
-145 14 -128 17 -156 21 -180 2 -14 6 -54 10 -90 4 -36 8 -81 10 -100 2 -19 7
-62 10 -95 3 -33 8 -74 10 -91 2 -17 7 -57 10 -90 3 -32 7 -79 10 -104 3 -25
7 -76 11 -115 3 -38 7 -81 9 -95 2 -14 7 -61 11 -105 3 -44 7 -93 9 -110 1
-16 6 -70 10 -120 4 -49 8 -106 10 -125 2 -19 7 -75 10 -125 3 -49 8 -110 10
-135 2 -25 7 -90 10 -145 3 -55 8 -124 11 -152 l4 -52 -53 -15 c-28 -8 -128
-35 -222 -61 -93 -26 -282 -80 -419 -121 -137 -41 -253 -74 -258 -74 -4 0 -6
12 -4 28 3 15 7 47 11 72 9 69 14 111 21 160 3 25 7 61 9 80 2 19 6 53 9 76 4
23 9 60 11 84 2 24 7 60 10 81 3 22 7 56 10 77 2 20 9 75 15 122 6 47 13 103
15 125 3 22 10 81 15 130 17 146 21 179 25 205 3 14 7 50 10 80 3 30 8 71 10
90 6 35 9 60 20 160 3 30 10 91 16 135 16 134 18 148 24 210 3 33 8 71 10 85
2 14 6 52 10 85 7 74 15 142 20 175 2 14 7 54 11 90 3 36 8 76 9 90 1 14 6 57
10 95 3 39 8 81 10 95 2 14 7 52 10 85 3 33 8 76 10 95 3 19 7 62 10 95 3 33
8 74 10 90 2 17 7 57 10 90 3 33 8 71 10 85 2 14 7 45 10 70 26 188 56 325 87
388 28 60 54 55 89 -16z m-3986 -3046 c48 -48 69 -178 69 -431 0 -149 -11
-422 -18 -462 -2 -10 -7 -56 -10 -103 -7 -84 -13 -143 -21 -210 -2 -19 -7 -60
-10 -90 -3 -30 -10 -89 -15 -130 -10 -84 -17 -156 -25 -245 -3 -33 -7 -73 -9
-90 -3 -16 -7 -66 -11 -110 -9 -103 -12 -127 -22 -135 -4 -4 -127 -68 -273
-143 -146 -75 -285 -147 -310 -161 -25 -14 -52 -29 -60 -33 -8 -3 -64 -33
-123 -66 -60 -32 -110 -57 -112 -55 -4 3 25 112 67 253 6 22 13 45 14 50 4 18
153 535 238 825 20 69 41 136 46 150 5 14 27 86 50 160 48 155 82 258 103 315
9 22 30 81 48 130 17 50 40 108 49 130 10 22 28 65 40 95 63 153 141 290 201
348 39 38 62 40 94 8z m2655 -1463 c0 -10 -5 -49 -11 -88 -5 -38 -12 -83 -14
-100 -2 -16 -6 -46 -9 -65 -3 -19 -8 -55 -11 -80 -4 -25 -8 -56 -10 -70 -2
-14 -7 -50 -10 -80 -4 -30 -9 -62 -10 -70 -2 -8 -6 -37 -9 -65 -4 -27 -11 -77
-16 -110 -5 -33 -11 -85 -15 -115 -3 -30 -8 -66 -10 -80 -7 -37 -13 -79 -20
-130 -3 -25 -8 -61 -11 -80 -2 -19 -6 -48 -8 -65 -6 -41 -25 -184 -30 -215 -5
-32 -17 -116 -22 -155 -2 -16 -6 -46 -9 -65 -3 -19 -7 -51 -10 -70 -12 -93
-57 -418 -60 -440 -2 -14 -7 -45 -10 -70 -3 -25 -8 -56 -10 -70 -2 -14 -9 -63
-15 -110 -13 -96 -17 -130 -30 -215 -5 -33 -12 -82 -15 -110 -3 -27 -10 -75
-15 -105 -5 -30 -12 -77 -15 -105 -3 -27 -10 -77 -15 -110 -5 -33 -12 -80 -15
-105 -3 -25 -10 -72 -15 -105 -5 -33 -12 -80 -15 -105 -3 -25 -8 -56 -10 -70
-2 -14 -6 -45 -10 -70 -8 -68 -27 -192 -31 -214 -2 -11 -8 -56 -14 -100 -13
-92 -18 -130 -25 -166 -3 -14 -7 -45 -10 -70 -3 -25 -10 -71 -15 -102 -6 -32
-12 -68 -14 -80 -13 -84 -19 -115 -22 -133 -2 -11 -9 -49 -15 -85 -30 -189
-131 -663 -184 -870 -75 -289 -190 -550 -285 -648 -69 -71 -132 -87 -226 -56
-183 61 -311 289 -389 689 -19 102 -37 246 -51 415 -3 36 -7 70 -9 77 -20 61
-26 1214 -12 2143 6 372 11 760 22 1660 2 157 4 297 4 311 1 28 -26 15 321
164 320 137 460 196 494 208 17 5 36 13 41 17 20 14 872 347 893 349 6 1 12
-7 12 -16z"/>
<path d="M11774 13715 c-111 -24 -243 -102 -373 -221 -110 -101 -137 -131
-331 -371 -28 -34 -185 -270 -234 -351 l-56 -92 33 -21 c44 -28 119 -21 178
17 54 34 167 145 249 244 34 41 71 86 83 100 12 14 48 57 81 95 89 104 207
216 244 232 40 17 65 10 91 -23 26 -34 19 -55 -68 -192 -39 -62 -71 -115 -71
-118 0 -2 -10 -21 -23 -42 -40 -63 -78 -173 -84 -239 -10 -114 33 -181 152
-237 101 -48 197 -33 298 46 77 61 140 127 412 437 106 121 213 196 350 247
21 8 26 9 65 20 14 4 79 8 145 10 115 3 241 -15 310 -45 11 -4 47 -19 80 -31
293 -111 482 -269 1004 -840 117 -128 376 -436 581 -692 53 -65 137 -196 168
-260 58 -121 76 -194 75 -298 -2 -155 -84 -262 -264 -347 -57 -27 -120 -55
-139 -62 -19 -7 -44 -17 -55 -22 -102 -44 -385 -111 -565 -134 -194 -24 -708
-25 -838 0 -9 1 -44 6 -77 9 -98 11 -253 35 -360 56 -55 10 -113 21 -130 24
-53 10 -76 15 -95 21 -10 3 -29 8 -42 10 -58 11 -247 61 -388 101 -404 117
-876 294 -1255 472 -150 70 -218 79 -282 39 -50 -32 -79 -72 -91 -125 -20 -87
-23 -84 263 -229 372 -188 665 -306 1095 -441 162 -51 480 -128 680 -165 88
-17 151 -27 195 -33 28 -3 59 -8 70 -10 11 -2 43 -7 70 -10 28 -3 61 -7 75 -9
14 -2 59 -6 100 -10 41 -4 91 -9 110 -11 207 -22 726 -22 945 0 17 2 62 6 100
10 39 4 142 18 230 32 169 25 174 26 245 43 25 5 57 12 71 14 14 3 61 15 104
27 70 20 131 41 325 113 356 133 483 284 426 508 -36 139 -219 458 -470 819
-166 239 -519 700 -647 845 -480 545 -677 722 -944 850 -89 42 -225 90 -288
100 -17 3 -58 10 -90 16 -66 11 -268 11 -342 -1 -96 -16 -112 -20 -188 -45
-111 -36 -266 -118 -302 -159 -50 -58 -351 -286 -377 -286 -17 0 -7 31 26 82
75 119 108 208 109 298 2 167 -170 276 -369 235z"/>
</g>
</svg>
