<svg xmlns="http://www.w3.org/2000/svg" xmlns:xlink="http://www.w3.org/1999/xlink" x="0px" y="0px" viewBox="0 0 520 527">
	<g>
		<path d="M431.4,414.3c-4.5,0-8.2-3.7-8.2-8.2v-300c0-4.6,3.7-8.2,8.2-8.2s8.2,3.7,8.2,8.2v300C439.7,410.6,436,414.3,431.4,414.3z"
			/>
		<path d="M398.4,470.6H77.3c-12.8,0-23.2-10.4-23.2-23.2V23.2C54.1,10.4,64.5,0,77.2,0h256.4c4.5,0,8.2,3.7,8.2,8.2
			s-3.7,8.2-8.2,8.2H77.2c-3.7,0-6.7,3-6.7,6.7v424.3c0,3.7,3,6.7,6.7,6.7h321.1c4.5,0,8.2,3.7,8.2,8.2
			C406.6,467,403,470.6,398.4,470.6L398.4,470.6z"/>
		<path d="M353.1,119c-15.5,0-27.8-12.2-27.8-27.3V8.2c0-3.3,2-6.3,5.1-7.6c3.1-1.3,6.6-0.6,9,1.8l97.8,97.8c2.3,2.3,3,5.7,1.9,8.7
			c-1.1,3-4,5.1-7.2,5.3L353.1,119C353.2,119,353.2,119,353.1,119L353.1,119z M341.9,28.1v63.6c0,6,4.9,10.8,10.8,10.8l60-3.6
			L341.9,28.1z"/>
		<path d="M362.4,526.2H23.2C10.4,526.2,0,515.8,0,503L0,56.5c0-12.8,10.4-23.1,23.1-23.1h39.2c4.5,0,8.2,3.7,8.2,8.2
			s-3.7,8.2-8.2,8.2H23.1c-3.7,0-6.7,3-6.7,6.7V503c0,3.7,3,6.7,6.7,6.7l339.2,0c3.7,0,6.7-3,6.7-6.7v-40.6c0-4.6,3.7-8.2,8.2-8.2
			s8.2,3.7,8.2,8.2V503C385.6,515.8,375.2,526.2,362.4,526.2L362.4,526.2z"/>
		<path d="M288.1,66H123.9c-4.5,0-8.2-3.7-8.2-8.2s3.7-8.2,8.2-8.2h164.3c4.5,0,8.2,3.7,8.2,8.2S292.6,66,288.1,66z"/>
		<path d="M288.1,109.1H123.9c-4.5,0-8.2-3.7-8.2-8.2s3.7-8.2,8.2-8.2h164.3c4.5,0,8.2,3.7,8.2,8.2S292.6,109.1,288.1,109.1z"/>
		<path d="M288.1,152.3H123.9c-4.5,0-8.2-3.7-8.2-8.2s3.7-8.2,8.2-8.2h164.3c4.5,0,8.2,3.7,8.2,8.2S292.6,152.3,288.1,152.3z"/>
		<path d="M249.6,338.1c-1.7,0-3.5-0.5-5-1.7l-17-12.9c-3.6-2.8-4.3-7.9-1.6-11.5c2.8-3.6,7.9-4.3,11.5-1.6l10.6,8.1l25-30.6
			c2.9-3.5,8.1-4,11.6-1.2c3.5,2.9,4.1,8.1,1.2,11.6l-30,36.8C254.4,337,252,338.1,249.6,338.1L249.6,338.1z"/>
		<path d="M476.7,527c-6.5,0-13.1-2.1-18.5-6.5l-80-63.7c-3.5-2.7-5.8-6.8-6.3-11.3c-0.5-4.5,0.8-8.9,3.7-12.4l29.4-37.2
			c6-7.3,16.3-8.4,23.6-2.7l79.8,63.6c6.6,5.2,10.5,12.2,11.4,20.1c0.9,7.9-1.3,15.6-6.3,21.8L499.9,516c0,0-0.1,0.1-0.1,0.1
			C493.9,523.3,485.3,527,476.7,527L476.7,527z M493.4,510.9L493.4,510.9L493.4,510.9z M418.4,406.2l-30,37.3l80.1,64.2
			c5.6,4.5,13.9,3.6,18.5-1.9l13.6-17.3c2.2-2.8,3.2-6.2,2.8-9.6c-0.4-3.4-2.1-6.5-4.8-8.7L418.4,406.2z"/>
		<path d="M253.1,432.3c-2.8,0-5.7-0.2-8.7-0.5c-4.5-0.3-9.3-1.1-14.7-2.3c-4.6-0.8-9.8-2.2-15.6-4.3c-7.9-2.8-15.5-6.2-22.4-10.3
			c-6.9-4.1-13.2-8.6-18.9-13.5c-18.2-15.7-31.3-36.1-38.2-58.9c-2.2-6.4-3.8-13.8-4.7-22.4c-0.3-2.5-0.6-5.1-0.7-7.8
			C125.9,251,169,195.1,229.2,182.3c3.5-0.7,7.7-1.6,12.3-1.8c51.5-6,100.9,19.9,125.3,66.1c7.5,13.8,12.2,29.1,14.1,45.2
			c2.2,20.5-0.4,41-7.7,59.4c-2.6,6.8-5.7,13.3-9.6,19.7c-0.5,0.8-0.8,1.2-1.1,1.8c-4.9,8.2-11.3,16.3-18.7,23.4
			c-0.7,0.8-1.6,1.6-2.5,2.2C328.2,410.8,313,420,296,425.6c-4.9,1.7-9.4,2.9-13.8,3.8l-0.8,0.2c-2.2,0.5-4.7,1-7.5,1.2
			c-1.5,0.4-2.9,0.5-4,0.5c-3.8,0.5-7.6,0.7-11.4,0.7C256.8,432.3,255,432.3,253.1,432.3L253.1,432.3z M255.9,196.2
			c-4.3,0-8.6,0.3-12.9,0.7c-3.9,0.3-7.4,0.9-10.3,1.5c-52.4,11.1-89.8,59.7-87.1,113.1c0.1,2.2,0.3,4.4,0.6,6.6
			c0.8,7.5,2.1,13.8,4.1,19.4c6,20.1,17.5,37.8,33.3,51.5c4.9,4.3,10.5,8.2,16.5,11.8c6,3.5,12.6,6.5,19.6,8.9
			c4.9,1.8,9.3,2.9,13.3,3.7c4.9,1.1,9,1.7,12.9,2c4.3,0.4,8.2,0.5,12.1,0.2c3.6,0,6.7-0.2,9.6-0.6c0.2,0,1.1-0.1,1.3-0.1
			c0.4,0,0.7,0,1.1-0.1c0.8-0.3,1.4-0.4,2.2-0.4c1.8-0.1,3.7-0.5,5.6-0.9l1-0.2c3.9-0.8,7.6-1.8,11.9-3.3c14.9-4.9,28.3-13,39.7-24.1
			c0.4-0.4,0.9-0.8,1.4-1.1c6.6-6.5,12.2-13.5,16.4-20.5c0.5-0.8,0.9-1.5,1.4-2.3c3.2-5.3,5.9-10.8,8.1-16.8c0,0,0-0.1,0-0.1
			c6.3-15.9,8.6-33.8,6.7-51.6c-1.6-14-5.7-27.2-12.2-39.3C333.1,218.1,296.2,196.2,255.9,196.2L255.9,196.2z"/>
		<path d="M253.1,388c-1.4,0-2.8-0.1-4.2-0.2l-1.3-0.1c-2.4-0.2-5-0.6-8.2-1.3l-1.9-0.4c-2.3-0.4-5.2-1.2-8.5-2.4
			c-5.5-1.9-10.5-4.2-15-6.8c-4.5-2.7-8.7-5.6-12.4-8.8c-11.7-10.1-20.2-23.3-24.6-38.1l-0.5-1.5c-1.2-3.4-2.1-7.8-2.6-13
			c-0.3-2.3-0.4-3.6-0.5-4.9c-2.1-40,25.9-76.5,65-84.8c2.8-0.6,4.7-0.9,5.7-0.9l2.3-0.2c3-0.3,6.2-0.5,9.4-0.5
			c30.2,0,57.8,16.6,71.9,43.3c4.9,9.1,8,19.1,9.2,29.6c1.4,13.1-0.3,26.3-4.9,38c-1.7,4.4-3.6,8.4-5.9,12.4c-0.8,1.2-1.3,2.1-2,3.3
			c-2.2,3.7-5.3,7.7-8.8,11.4c-0.3,0.3-0.6,0.6-0.9,0.8l-3.2,3c-8.4,8.1-18.2,14.1-29.1,17.7c-3.4,1.2-6.1,1.9-8.6,2.4l-2.5,0.5
			c-0.5,0.1-0.9,0.2-1.4,0.2l-4.9,0.5c-0.6,0.2-1.2,0.4-1.9,0.4c-1.4,0.2-2.8,0.2-4.2,0.2H257C256.9,387.9,253.9,388,253.1,388
			L253.1,388z M255.7,240.5c-2.6,0-5.1,0.2-7.7,0.4l-2.7,0.2c-0.8,0.1-1.9,0.3-3.5,0.6c-31.3,6.6-53.6,35.8-52,67.8
			c0,1,0.1,2,0.4,3.8c0.6,5.1,1.3,8.1,1.9,9.7l0.6,1.9c3.6,11.9,10.4,22.4,19.7,30.5c3,2.5,6.3,4.9,10,7.1c3.6,2.1,7.6,3.9,12.2,5.5
			c2.4,0.9,4.4,1.4,6,1.7l2.3,0.5c2.5,0.6,4.4,0.9,6.1,1l1.6,0.1c1,0.1,1.8,0.2,2.7,0.2c0.8,0,3.3-0.2,3.3-0.2l2.1,0c0.5,0,1,0,1.6,0
			l1.1-0.4c0.8-0.3,1.6-0.4,2.5-0.5l6.5-0.6c2-0.4,3.9-1,6.7-1.9c8.6-2.8,16.3-7.5,22.9-13.9l3.6-3.5c0.1-0.1,0.3-0.3,0.4-0.4
			c2.5-2.7,4.7-5.5,6.1-7.8c0.7-1.3,1.4-2.5,2.2-3.7c1.7-2.9,3.2-6,4.6-9.7c3.7-9.4,5-19.8,3.9-30.2c-1-8.5-3.4-16.3-7.4-23.7
			C301.8,253.7,279.8,240.5,255.7,240.5L255.7,240.5z"/>
		<path d="M383.3,445c-1.9,0-3.7-0.6-5.2-1.8l-50.4-40.8c-1.9-1.5-3-3.8-3.1-6.3c0-2.5,1-4.8,2.9-6.4c0.5-0.5,1-1,1.5-1.5
			c8.3-8.6,15.8-17.9,22.3-27.8c0.4-0.6,0.8-1.2,1.1-1.8c1.1-2.2,3.2-3.8,5.6-4.3c2.4-0.6,5,0.1,6.9,1.6l50.3,40.5
			c3.5,2.9,4.2,8.1,1.3,11.6l-26.9,33.8c-1.4,1.7-3.4,2.8-5.6,3.1C383.9,445,383.6,445,383.3,445L383.3,445z M345.1,395.3l36.9,29.8
			l16.7-20.9l-36.9-29.7C356.7,381.7,351.1,388.7,345.1,395.3z"/>
	</g>
</svg>
