<svg xmlns="http://www.w3.org/2000/svg" xmlns:xlink="http://www.w3.org/1999/xlink" x="0px" y="0px" viewBox="0 0 537.8 537.6">
<g>
	<path d="M85.1,537.6H429c35.8,0,65-29.1,65-66.1v-81.8c0-12.3-10.1-22.4-21.3-22.4h-86.2v-57.1c14.6-17.9-52.6,63.8,143.4-174.7
		c12.3-14.6,10.1-35.8-4.5-48.2l-29.1-24.6c-13.4-11.2-35.8-10.1-47,4.5c-1.1,1.1-66.1,80.6-62.7,76.2v-121
		c0-12.3-10.1-22.4-21.3-22.4L21.3,0C10.1,0,0,10.1,0,22.4v429C0,498.4,38.1,537.6,85.1,537.6L85.1,537.6z M471.5,389.8v81.8
		c0,24.6-19,43.7-42.6,43.7s-42.6-19-42.6-43.7v-81.8H471.5z M245.3,359.5l37,31.4L233,413.3L245.3,359.5z M430.1,124.3l14.6,12.3
		L268.8,350.6l-14.6-12.3L430.1,124.3z M301.3,378.6l-14.6-12.3l175.8-213.9l14.6,12.3L301.3,378.6z M465.9,81.8
		c4.5-4.5,11.2-5.6,15.7-1.1l29.1,24.6c4.5,4.5,5.6,11.2,1.1,16.8l-21.3,25.8l-47-40.3L465.9,81.8z M21.3,22.4h341.6v147.8
		l-49.3,60.5h-1.1H76.2c-6.7,0-11.2,4.5-11.2,11.2c0,6.7,4.5,11.2,11.2,11.2h219.5l-26.9,31.4H76.2c-6.7,0-11.2,4.5-11.2,11.2
		s4.5,11.2,11.2,11.2h174.7l-21.3,25.8c0,1.1-1.1,1.1-1.1,2.2c0,1.1-1.1,1.1-1.1,2.2l-1.1,2.2l-150.1,0c-6.7,0-11.2,4.5-11.2,11.2
		s4.5,11.2,11.2,11.2h145.6L205,430.1c-1.1,4.5,0,9,3.4,11.2c3.4,3.4,7.8,3.4,11.2,1.1l86.2-39.2c1.1,0,1.1-1.1,2.2-1.1
		c1.1,0,1.1-1.1,2.2-1.1l52.6-63.8v134.4c0,16.8,6.7,32.5,16.8,43.7l-294.5,0c-34.7,0-62.7-29.1-62.7-63.8L21.3,22.4z"/>
	<path d="M76.2,143.4h121c6.7,0,11.2-4.5,11.2-11.2s-4.5-11.2-11.2-11.2h-121c-6.7,0-11.2,4.5-11.2,11.2S69.4,143.4,76.2,143.4
		L76.2,143.4z"/>
	<path d="M76.2,198.2h237.4c6.7,0,11.2-4.5,11.2-11.2s-4.5-11.2-11.2-11.2l-237.4,0c-6.7,0-11.2,4.5-11.2,11.2
		C65,192.6,69.4,198.2,76.2,198.2L76.2,198.2z"/>
</g>
</svg>
