<?xml version="1.0" encoding="utf-8"?>
<!-- Generator: Adobe Illustrator 21.0.2, SVG Export Plug-In . SVG Version: 6.00 Build 0)  -->
<svg version="1.1" id="Layer_1" xmlns="http://www.w3.org/2000/svg" xmlns:xlink="http://www.w3.org/1999/xlink" x="0px" y="0px"
	 viewBox="0 0 453.5 498.4" style="enable-background:new 0 0 453.5 498.4;" xml:space="preserve">
<g>
	<path d="M381.1,14.9v137c0,9.6,7.8,17.4,17.4,17.4h37.5c9.6,0,17.4,7.8,17.4,17.4v267.1c0,12.3-5,23.4-13.1,31.5
		c-9,8.7-17.8,12.8-31.5,13.1H44.6c-12.3,0-23.4-5-31.5-13.1C5,477.2,0,466.1,0,453.8V17.4C0,7.8,7.8,0,17.4,0h348.8
		C374.4,0,381.1,6.7,381.1,14.9L381.1,14.9z M67.4,369.5c-4.6,0-8.4-3.8-8.4-8.4s3.8-8.4,8.4-8.4h246.3c4.6,0,8.4,3.8,8.4,8.4
		s-3.8,8.4-8.4,8.4H67.4z M67.4,312.7c-4.6,0-8.4-3.8-8.4-8.4s3.8-8.4,8.4-8.4h246.3c4.6,0,8.4,3.8,8.4,8.4s-3.8,8.4-8.4,8.4H67.4z
		 M135.5,206.8c-11.1-13.9-19.7-30.8-21.3-50.6c-1-12.6,1.2-22.9,5.6-30.9c9.1-16.5,27.2-22.7,45.1-19.4c8.8,1.6,17.8,5.6,25.8,11.8
		c8-6.2,16.9-10.1,25.8-11.8c17.9-3.3,36,2.9,45.1,19.4c4.4,8,6.6,18.3,5.6,30.9c-1.6,19.7-10.2,36.7-21.3,50.6
		c-14.9,18.7-34.1,32.5-55.1,43.6c-21-11.1-40.2-24.9-55.1-43.6L135.5,206.8z M148.6,196.4c13.6,17.1,31.5,29,41.9,35.1
		c10.5-6,28.4-18,42-35.1c9.2-11.6,16.4-25.5,17.7-41.4c0.7-9.2-0.7-16.3-3.5-21.5c-5.5-10.1-16.6-13-27.4-11
		c-8,1.5-16.1,5.7-22.9,12.4l-5.9,5.8l-5.9-5.8c-6.8-6.7-15-10.9-22.9-12.4c-10.8-2-21.8,0.9-27.4,11c-2.9,5.2-4.3,12.3-3.5,21.5
		C132.1,170.8,139.3,184.8,148.6,196.4L148.6,196.4z M381.2,453.8c0,7.6,3.1,14.6,8.2,19.6c5,5,12,8.2,19.6,8.2
		c7.7,0,14.6-3.1,19.7-8.2c5-5,8.2-12,8.2-19.7V194.1c0-4.5-3.6-8.1-8.1-8.1h-47.5L381.2,453.8L381.2,453.8z M364.4,453.8V24.1
		c0-4-3.3-7.3-7.3-7.3H23.5c-3.8,0-6.8,3.1-6.8,6.8v430.2c0,7.6,3.1,14.6,8.2,19.6c5,5,12,8.2,19.6,8.2h329.6
		C367.8,473.6,364.4,463.9,364.4,453.8L364.4,453.8z"/>
</g>
</svg>
