<svg version="1.1" xmlns="http://www.w3.org/2000/svg" xmlns:xlink="http://www.w3.org/1999/xlink" x="0px" y="0px" viewBox="0 0 353.4 390.4" xml:space="preserve">
	<path d="M271.7,349.3c-0.3,5.8,1.1,30.9-16.5,31.1c-33.7,0-52.2-90.8-50.6-167.4c0.6-28.5-0.5-60.1-2.1-88.5c53.9-11.7,80.9-5.2,87-4c10.4,2.1,18.3,2.7,18.4,0.1s-1.8-6.2-11.3-9c-30.1-7.4-62.9-6-94.8-0.1c-2.7-41.8-6.1-74-6.1-74S193.1-0.7,174,0s-21.9,29.4-21.9,29.4s-6.5,48.3-13.6,99.4c-16,5.7-31,11.9-44.5,18c0-8.5-0.1-16.4-0.2-23.1c-1.1-43.1-17.6-39.6-17.6-39.6c-17.8,0-33.1,62.4-38.3,88.2c-0.2,1.2-0.5,2.5-0.9,4c-3.5,2-5.3,3.2-5.3,3.2c-4.3,3.4-2.4,6.7-2.4,6.7s1,2.6,4.4,2.9c-9.6,35.3-29.9,98.2-31.4,103.1c-1.9,5.9-4.1,16.5,0,16.5c11.7,0,25.9-58.6,30.2-72.1s7.9-31.5,11.2-45.6c0.4-1.7,0.9-3.7,1.5-6c8.4-4.3,16.6-8.4,24.5-12.3c-3,36.8-6.2,97.4,2.7,114c13,24.4,36.1,30.9,51.8,2.2c9.4-17.2,20.6-89.8,28.6-150.5c9-3,17.5-5.6,25.5-7.9c1.1,34.9,1,99.6,3.4,138.4c2.6,42.9,29,108.6,57.1,118.9c28,10.2,37.9-12.8,40.6-24.1C282.1,352.3,272.1,343.5,271.7,349.3z M49.6,169c4.4-15.7,9.6-33.3,11.2-38.1c2.5-7.5,9.1-26.5,12.3-20.8c3.2,5.8-0.5,33.5-0.5,33.5s-0.6,5.4-1.4,14.1C62.8,161.8,55.6,165.7,49.6,169z M122.1,246.2c-3.3,19.5-8,43.3-15.4,43.3S95,278.8,93.9,261.2c-1.5-6.1-0.1-56.8,0.2-99.8c15.1-6.7,29.2-12.4,42.4-17.3C130,191.4,123.6,237.3,122.1,246.2z M163.2,52.5c2.6-25.4,5.2-17.4,6.5-11.3c1.3,5.8,6.4,45,8.1,75.6c-7.8,2-15.5,4.2-23,6.6C159.2,89.4,162.3,61.4,163.2,52.5z"/>
	<path d="M353.2,135.4c-1.6-8.2-24.2-39.9-40.1-54.4s-32.6-9.7-38.9-4s-10.4,8.3-8.5,5.2c2-3,5.9-9.4,0-12.8c-12.6-6.5-29.6,24.1-29.6,24.1c4,4.1,9.7-4.5,14.7-10.2c5-5.8,6.6-6.6,7.7-5.7s1,1.7,0.4,2.7c-2.8,4.7-9.5,13.3-3.5,17c6,3.7,8.8,0.1,18.5-11.1c9.8-11.3,22.2-5.5,29.2-1.3s24,23.8,32,34.1c7.9,10.3,6.2,17.2,0.9,20.2c-35.1,19-91.9-8.3-98.3-11.3s-8.5,4.3-6.8,5.2c53.9,30,100.1,18.4,107.3,15.7C345.3,146.1,354.8,143.6,353.2,135.4z"/>
</svg>