<svg xmlns="http://www.w3.org/2000/svg" xmlns:xlink="http://www.w3.org/1999/xlink" x="0px" y="0px" viewBox="0 0 560 466.7">
<g>
	<path d="M548.3,0H105c-3.1,0-6.1,1.2-8.3,3.4s-3.4,5.2-3.4,8.3V140H11.7c-3.1,0-6.1,1.2-8.3,3.4c-2.2,2.2-3.4,5.2-3.4,8.3v256.7
		c0,15.5,6.2,30.3,17.1,41.2c10.9,10.9,25.8,17.1,41.2,17.1h443.3c15.5,0,30.3-6.2,41.2-17.1c10.9-10.9,17.1-25.8,17.1-41.2V11.7
		c0-3.1-1.2-6.1-3.4-8.3S551.4,0,548.3,0L548.3,0z M23.3,408.3v-245h70v245c0,12.5-6.7,24.1-17.5,30.3c-10.8,6.3-24.2,6.3-35,0
		C30,432.4,23.3,420.8,23.3,408.3z M536.7,408.3L536.7,408.3c0,9.3-3.7,18.2-10.3,24.7c-6.6,6.6-15.5,10.3-24.7,10.3H105
		c7.4-10.2,11.5-22.4,11.7-35v-385h420L536.7,408.3z M151.7,140h350c3.1,0,6.1-1.2,8.3-3.4c2.2-2.2,3.4-5.2,3.4-8.3v-70
		c0-3.1-1.2-6.1-3.4-8.3c-2.2-2.2-5.2-3.4-8.3-3.4h-350c-3.1,0-6.1,1.2-8.3,3.4c-2.2,2.2-3.4,5.2-3.4,8.3v70c0,3.1,1.2,6.1,3.4,8.3
		C145.6,138.8,148.6,140,151.7,140z M163.3,70H490v46.7l-326.7,0L163.3,70z M151.7,326.7h210c3.1,0,6.1-1.2,8.3-3.4s3.4-5.2,3.4-8.3
		V175c0-3.1-1.2-6.1-3.4-8.3s-5.2-3.4-8.3-3.4h-210c-3.1,0-6.1,1.2-8.3,3.4c-2.2,2.2-3.4,5.2-3.4,8.3v140
		C140,321.4,145.2,326.6,151.7,326.7L151.7,326.7z M263.5,303.3h-83.7l41.8-41.8L263.5,303.3z M296.5,303.3L273.2,280l41.8-41.8
		l35,35v30.2H296.5z M350,186.7v53.5l-26.8-26.8c-2.2-2.2-5.2-3.4-8.3-3.4s-6.1,1.2-8.3,3.4l-50.1,50.1l-26.8-26.7h0
		c-2.2-2.2-5.2-3.4-8.2-3.4c-3.1,0-6.1,1.2-8.3,3.4l-50.1,50.1V186.7L350,186.7z M513.3,175L513.3,175c0,3.1-1.2,6.1-3.4,8.3
		c-2.2,2.2-5.2,3.4-8.3,3.4h-93.3c-6.4,0-11.7-5.2-11.7-11.7c0-6.4,5.2-11.7,11.7-11.7h93.3c3.1,0,6.1,1.2,8.3,3.4
		C512.1,168.9,513.3,171.9,513.3,175L513.3,175z M513.3,221.7c0,3.1-1.2,6.1-3.4,8.3c-2.2,2.2-5.2,3.4-8.3,3.4h-93.3
		c-6.4,0-11.7-5.2-11.7-11.7c0-6.4,5.2-11.7,11.7-11.7h93.3c3.1,0,6.1,1.2,8.3,3.4C512.1,215.6,513.3,218.6,513.3,221.7L513.3,221.7
		z M513.3,268.3c0,3.1-1.2,6.1-3.4,8.3c-2.2,2.2-5.2,3.4-8.3,3.4h-93.3c-6.4,0-11.7-5.2-11.7-11.7s5.2-11.7,11.7-11.7h93.3
		c3.1,0,6.1,1.2,8.3,3.4C512.1,262.3,513.3,265.2,513.3,268.3z M513.3,315c0,3.1-1.2,6.1-3.4,8.3c-2.2,2.2-5.2,3.4-8.3,3.4h-93.3
		c-6.4,0-11.7-5.2-11.7-11.7c0-6.4,5.2-11.7,11.7-11.7h93.3c3.1,0,6.1,1.2,8.3,3.4C512.1,308.9,513.3,311.9,513.3,315L513.3,315z
		 M140,361.7c0-3.1,1.2-6.1,3.4-8.3c2.2-2.2,5.2-3.4,8.3-3.4h350c6.4,0,11.7,5.2,11.7,11.7c0,6.4-5.2,11.7-11.7,11.7h-350
		c-3.1,0-6.1-1.2-8.3-3.4C141.2,367.7,140,364.8,140,361.7L140,361.7z M140,408.3c0-3.1,1.2-6.1,3.4-8.3c2.2-2.2,5.2-3.4,8.3-3.4
		h350c6.4,0,11.7,5.2,11.7,11.7s-5.2,11.7-11.7,11.7h-350c-3.1,0-6.1-1.2-8.3-3.4C141.2,414.4,140,411.4,140,408.3z M245,221.7
		c0-4.7,2.8-9,7.2-10.8c4.4-1.8,9.4-0.8,12.7,2.5c3.3,3.3,4.3,8.4,2.5,12.7c-1.8,4.4-6.1,7.2-10.8,7.2
		C250.2,233.3,245,228.1,245,221.7L245,221.7z"/>
</g>
</svg>
