<svg xmlns="http://www.w3.org/2000/svg" xmlns:xlink="http://www.w3.org/1999/xlink" x="0px" y="0px" viewBox="0 0 560 475.9">
	<path d="M504,0H56C25.1,0,0,25.1,0,56v364c0,30.9,25.1,56,56,56h448c30.9,0,56-25.1,56-56V56C560,25.1,534.9,0,504,0L504,0z
		 M532,419.9c0,15.4-12.6,28-28,28l-448,0c-15.4,0-28-12.6-28-28V56c0-15.4,12.6-28,28-28h448c15.4,0,28,12.6,28,28V419.9z M364,336
		H140v-28h224V336z M420,336h-28v-28h28V336z M84,364h28v28H84V364z M140,364h196v28l-196,0V364z M364,364h112v28l-112,0V364z"/>
</svg>
